<svg width="101" height="101" viewBox="0 0 101 101" fill="none" xmlns="http://www.w3.org/2000/svg">
<path d="M29.6667 66.8426C20.4619 66.8426 13 59.3807 13 50.1759C13 42.2299 18.5607 35.5826 26.0029 33.9133C25.6737 32.4424 25.5 30.9128 25.5 29.3426C25.5 17.8367 34.8274 8.50928 46.3333 8.50928C56.4138 8.50928 64.822 15.6687 66.7507 25.18C66.8891 25.1773 67.0277 25.1759 67.1667 25.1759C78.6726 25.1759 88 34.5033 88 46.0093C88 56.0883 80.8427 64.4956 71.3333 66.4259M63 54.3426L50.5 41.8426M50.5 41.8426L38 54.3426M50.5 41.8426L50.5 91.8426" stroke="#7F7F7F" stroke-width="6" stroke-linecap="round" stroke-linejoin="round"/>
</svg>
