<svg width="45" height="45" viewBox="0 0 45 45" fill="none" xmlns="http://www.w3.org/2000/svg">
<path fill-rule="evenodd" clip-rule="evenodd" d="M38.4375 6.5625C34.2188 2.34375 28.5 0 22.5 0C10.1437 0 0 10.1437 0 22.5C0 26.4562 1.21875 30.2063 3.1875 33.6L0 45L11.8687 42.0938C15.15 43.8938 18.75 45 22.5 45C34.8563 45 45 34.8563 45 22.5C45 16.5187 42.675 10.8 38.4375 6.5625ZM22.5 41.25C19.1625 41.25 15.975 40.1437 13.1062 38.4562L12.4313 38.0438L5.38125 39.9L7.25625 33.0188L6.80625 32.3062C4.95 29.3438 3.75 26.025 3.75 22.5C3.75 12.225 12.225 3.75 22.5 3.75C27.4688 3.75 32.25 5.71875 35.775 9.24375C39.3 12.7687 41.25 17.5312 41.25 22.5C41.25 32.775 32.7562 41.25 22.5 41.25ZM32.8125 27.0938C32.25 26.8125 29.4937 25.4625 28.9875 25.275C28.4813 25.0875 28.1063 24.9937 27.7313 25.5562C27.3563 26.1187 26.2875 27.375 25.95 27.75C25.6313 28.125 25.2937 28.1625 24.7312 27.8813C24.1687 27.6 22.3687 27.0188 20.2313 25.1063C18.5625 23.625 17.4375 21.7875 17.1187 21.225C16.8 20.6625 17.0813 20.3625 17.3625 20.0812C17.6063 19.8375 17.925 19.425 18.2062 19.1062C18.4875 18.7875 18.5813 18.5437 18.7688 18.1687C18.9563 17.7937 18.8625 17.475 18.7312 17.1938C18.5812 16.9125 17.4563 14.1562 16.9875 13.0312C16.5375 11.9437 16.0688 12.0938 15.7313 12.075C15.4125 12.0563 15.0375 12.0562 14.6625 12.0562C14.2875 12.0562 13.6875 12.2063 13.1625 12.75C12.6562 13.3125 11.2125 14.6813 11.2125 17.4375C11.2125 20.1938 13.2188 22.8563 13.5 23.2313C13.7812 23.6063 17.4563 29.2687 23.0625 31.6875C24.3938 32.2687 25.4438 32.6063 26.25 32.8688C27.6 33.3 28.8188 33.2437 29.775 33.0938C30.8438 32.925 33.0938 31.7437 33.5625 30.4312C34.0312 29.1187 34.0312 27.9938 33.8812 27.7688C33.75 27.525 33.375 27.375 32.8125 27.0938Z" fill="#43841A"/>
</svg>
